<svg width="46" height="47" viewBox="0 0 46 47" fill="none" xmlns="http://www.w3.org/2000/svg">
<path d="M37.1257 9.56242L25.8941 4.55992C24.2457 3.83159 21.7541 3.83159 20.1057 4.55992L8.87406 9.56242C6.03739 10.8274 5.61572 12.5524 5.61572 13.4724C5.61572 14.3924 6.03739 16.1174 8.87406 17.3824L20.1057 22.3849C20.9299 22.749 21.9649 22.9407 22.9999 22.9407C24.0349 22.9407 25.0699 22.749 25.8941 22.3849L37.1257 17.3824C39.9624 16.1174 40.3841 14.3924 40.3841 13.4724C40.3841 12.5524 39.9816 10.8274 37.1257 9.56242Z" fill="url(#paint0_linear_78_704)"/>
<path d="M23.0001 32.8499C22.2718 32.8499 21.5434 32.6966 20.8726 32.4091L7.95428 26.6591C5.98011 25.7774 4.44678 23.4199 4.44678 21.2541C4.44678 20.4683 5.07928 19.8358 5.86511 19.8358C6.65094 19.8358 7.28344 20.4683 7.28344 21.2541C7.28344 22.2891 8.14594 23.6308 9.10428 24.0524L22.0226 29.8024C22.6359 30.0708 23.3451 30.0708 23.9584 29.8024L36.8768 24.0524C37.8351 23.6308 38.6976 22.3083 38.6976 21.2541C38.6976 20.4683 39.3301 19.8358 40.1159 19.8358C40.9018 19.8358 41.5343 20.4683 41.5343 21.2541C41.5343 23.4008 40.0009 25.7774 38.0268 26.6591L25.1084 32.4091C24.4568 32.6966 23.7284 32.8499 23.0001 32.8499Z" fill="#282D45"/>
<path d="M23.0001 42.3566C22.2718 42.3566 21.5434 42.2033 20.8726 41.9158L7.95428 36.1658C5.82678 35.2266 4.44678 33.0991 4.44678 30.7608C4.44678 29.975 5.07928 29.3425 5.86511 29.3425C6.65094 29.3425 7.28344 29.975 7.28344 30.7608C7.28344 31.9683 7.99261 33.0608 9.10428 33.5591L22.0226 39.3091C22.6359 39.5775 23.3451 39.5775 23.9584 39.3091L36.8768 33.5591C37.9693 33.08 38.6976 31.9683 38.6976 30.7608C38.6976 29.975 39.3301 29.3425 40.1159 29.3425C40.9018 29.3425 41.5343 29.975 41.5343 30.7608C41.5343 33.0991 40.1543 35.2075 38.0268 36.1658L25.1084 41.9158C24.4568 42.2033 23.7284 42.3566 23.0001 42.3566Z" fill="#282D45"/>
<defs>
<linearGradient id="paint0_linear_78_704" x1="5.7399" y1="13.4768" x2="42.3708" y2="13.4767" gradientUnits="userSpaceOnUse">
<stop stop-color="#331C9C"/>
<stop offset="1" stop-color="#9066FB"/>
</linearGradient>
</defs>
</svg>
