<svg width="31" height="35" viewBox="0 0 31 35" fill="none" xmlns="http://www.w3.org/2000/svg">
<path d="M18.3911 33.7354C18.3911 33.7354 18.1746 33.9461 17.7417 34.3677C17.3088 34.7892 16.4998 35 15.3149 35C14.13 35 13.1047 34.5785 12.2388 33.7354C11.3729 32.8923 10.9399 31.8555 10.9399 30.625H19.6899C19.6899 31.8555 19.257 32.8923 18.3911 33.7354ZM30.0122 24.7461C30.4224 25.2018 30.6274 25.7031 30.6274 26.25C30.6274 26.8424 30.4224 27.3551 30.0122 27.7881C29.6021 28.221 29.078 28.4375 28.4399 28.4375H2.18994C1.77979 28.4375 1.40381 28.335 1.06201 28.1299C0.720215 27.9248 0.458171 27.6514 0.275879 27.3096C0.0935872 26.9678 0.00244141 26.6146 0.00244141 26.25C0.00244141 25.7031 0.20752 25.2018 0.617676 24.7461C0.663249 24.7005 0.731608 24.6094 0.822754 24.4727C1.50635 23.7891 2.04183 23.1738 2.4292 22.627C2.81657 22.0801 3.23812 21.0433 3.69385 19.5166C4.14958 17.9899 4.37744 16.224 4.37744 14.2188C4.37744 11.5755 5.19775 9.27409 6.83838 7.31445C8.479 5.35482 10.5754 4.12435 13.1274 3.62305V2.1875C13.1274 1.59505 13.3439 1.08236 13.7769 0.649414C14.2098 0.216473 14.7225 0 15.3149 0C15.9074 0 16.4201 0.216473 16.853 0.649414C17.286 1.08236 17.5024 1.59505 17.5024 2.1875V3.62305C19.1886 3.94206 20.6925 4.60287 22.0142 5.60547C23.3358 6.60807 24.3726 7.86133 25.1245 9.36523C25.8765 10.8691 26.2524 12.487 26.2524 14.2188C26.2524 16.224 26.4803 17.9899 26.936 19.5166C27.3918 21.0433 27.8133 22.0801 28.2007 22.627C28.5881 23.1738 29.1235 23.7891 29.8071 24.4727C29.8983 24.6094 29.9666 24.7005 30.0122 24.7461Z" fill="#FF6A00"/>
</svg>
