<svg width="44" height="31" viewBox="0 0 44 31" fill="none" xmlns="http://www.w3.org/2000/svg">
<path d="M36.7773 13.5176C38.099 13.7454 39.2839 14.2695 40.332 15.0898C41.3802 15.9102 42.2119 16.9355 42.8271 18.166C43.4424 19.3965 43.75 20.6953 43.75 22.0625C43.75 24.4779 42.8955 26.54 41.1865 28.249C39.4775 29.958 37.4154 30.8125 35 30.8125H9.84375C7.10938 30.8125 4.78516 29.8555 2.87109 27.9414C0.957031 26.0273 0 23.7031 0 20.9688C0 18.8268 0.615234 16.9128 1.8457 15.2266C3.07617 13.5404 4.64844 12.3555 6.5625 11.6719C6.5625 11.444 6.5625 11.2617 6.5625 11.125C6.5625 8.11719 7.63346 5.54232 9.77539 3.40039C11.9173 1.25846 14.4922 0.1875 17.5 0.1875C19.5052 0.1875 21.3509 0.688803 23.0371 1.69141C24.7233 2.69401 26.0449 4.01562 27.002 5.65625C28.0957 4.92708 29.3034 4.5625 30.625 4.5625C32.4479 4.5625 33.9974 5.20052 35.2734 6.47656C36.5495 7.7526 37.1875 9.30208 37.1875 11.125C37.1875 11.9453 37.0508 12.7428 36.7773 13.5176Z" fill="#FF6A00"/>
</svg>
