<svg width="31" height="35" viewBox="0 0 31 35" fill="none" xmlns="http://www.w3.org/2000/svg">
<path d="M0.00244141 15.3125V2.1875H13.1274V15.3125H0.00244141ZM4.37744 6.5625V10.9375H8.75244V6.5625H4.37744ZM17.5024 2.1875H30.6274V15.3125H17.5024V2.1875ZM26.2524 10.9375V6.5625H21.8774V10.9375H26.2524ZM0.00244141 32.8125V19.6875H13.1274V32.8125H0.00244141ZM4.37744 24.0625V28.4375H8.75244V24.0625H4.37744ZM28.4399 19.6875H30.6274V28.4375H24.0649V26.25H21.8774V32.8125H17.5024V19.6875H24.0649V21.875H28.4399V19.6875ZM28.4399 30.625H30.6274V32.8125H28.4399V30.625ZM24.0649 30.625H26.2524V32.8125H24.0649V30.625Z" fill="#FF6A00"/>
</svg>
