<svg width="22" height="35" viewBox="0 0 22 35" fill="none" xmlns="http://www.w3.org/2000/svg">
<path d="M18.5962 0C19.5077 0 20.2824 0.319012 20.9204 0.957031C21.5584 1.59505 21.8774 2.36979 21.8774 3.28125V31.7188C21.8774 32.6302 21.5584 33.4049 20.9204 34.043C20.2824 34.681 19.5077 35 18.5962 35H3.28369C2.37223 35 1.59749 34.681 0.959473 34.043C0.321452 33.4049 0.00244141 32.6302 0.00244141 31.7188V3.28125C0.00244141 2.36979 0.321452 1.59505 0.959473 0.957031C1.59749 0.319012 2.37223 0 3.28369 0H18.5962ZM9.40186 32.1631C9.40186 32.1631 9.51009 32.2713 9.72656 32.4878C9.94303 32.7043 10.3475 32.8125 10.9399 32.8125C11.5324 32.8125 12.0451 32.596 12.478 32.1631C12.911 31.7301 13.1274 31.2174 13.1274 30.625C13.1274 30.0326 12.911 29.5199 12.478 29.0869C12.0451 28.654 11.5324 28.4375 10.9399 28.4375C10.3475 28.4375 9.8348 28.654 9.40186 29.0869C8.96891 29.5199 8.75244 30.0326 8.75244 30.625C8.75244 31.2174 8.96891 31.7301 9.40186 32.1631ZM18.5962 25.4297V4.10156C18.5962 3.55469 18.3228 3.28125 17.7759 3.28125H4.104C3.55713 3.28125 3.28369 3.55469 3.28369 4.10156V25.4297C3.28369 25.9766 3.55713 26.25 4.104 26.25H17.7759C18.3228 26.25 18.5962 25.9766 18.5962 25.4297Z" fill="#FF6A00"/>
</svg>
