<svg width="36" height="35" viewBox="0 0 36 35" fill="none" xmlns="http://www.w3.org/2000/svg">
<path d="M15.2188 9.02344C14.8997 9.02344 14.6377 8.9209 14.4326 8.71582C14.2275 8.51074 14.125 8.2487 14.125 7.92969V5.19531C14.125 4.8763 14.2275 4.61426 14.4326 4.40918C14.6377 4.2041 14.8997 4.10156 15.2188 4.10156H34.9062C35.2253 4.10156 35.4873 4.2041 35.6924 4.40918C35.8975 4.61426 36 4.8763 36 5.19531V7.92969C36 8.2487 35.8975 8.51074 35.6924 8.71582C35.4873 8.9209 35.2253 9.02344 34.9062 9.02344H15.2188ZM15.2188 19.9609C14.8997 19.9609 14.6377 19.8584 14.4326 19.6533C14.2275 19.4482 14.125 19.1862 14.125 18.8672V16.1328C14.125 15.8138 14.2275 15.5518 14.4326 15.3467C14.6377 15.1416 14.8997 15.0391 15.2188 15.0391H34.9062C35.2253 15.0391 35.4873 15.1416 35.6924 15.3467C35.8975 15.5518 36 15.8138 36 16.1328V18.8672C36 19.1862 35.8975 19.4482 35.6924 19.6533C35.4873 19.8584 35.2253 19.9609 34.9062 19.9609H15.2188ZM15.2188 30.8984C14.8997 30.8984 14.6377 30.7959 14.4326 30.5908C14.2275 30.3857 14.125 30.1237 14.125 29.8047V27.0703C14.125 26.7513 14.2275 26.4893 14.4326 26.2842C14.6377 26.0791 14.8997 25.9766 15.2188 25.9766H34.9062C35.2253 25.9766 35.4873 26.0791 35.6924 26.2842C35.8975 26.4893 36 26.7513 36 27.0703V29.8047C36 30.1237 35.8975 30.3857 35.6924 30.5908C35.4873 30.7959 35.2253 30.8984 34.9062 30.8984H15.2188ZM3.0166 26.1133C3.0166 26.1133 3.1818 25.9538 3.51221 25.6348C3.84261 25.3158 4.46354 25.1562 5.375 25.1562C6.28646 25.1562 7.0612 25.4753 7.69922 26.1133C8.33724 26.7513 8.65625 27.526 8.65625 28.4375C8.65625 29.349 8.33724 30.1237 7.69922 30.7617C7.0612 31.3997 6.28646 31.7188 5.375 31.7188C4.46354 31.7188 3.67741 31.3997 3.0166 30.7617C2.35579 30.1237 2.02539 29.349 2.02539 28.4375C2.02539 27.526 2.35579 26.7513 3.0166 26.1133ZM11.6641 4.7168L6.74219 9.63867L5.7168 10.7324C5.30664 11.1426 4.89648 11.1426 4.48633 10.7324L1.27344 7.45117C0.863281 7.08659 0.863281 6.69922 1.27344 6.28906L2.29883 5.26367C2.70898 4.85352 3.09635 4.85352 3.46094 5.26367L5.0332 6.76758L9.4082 2.46094C9.77279 2.05078 10.1602 2.05078 10.5703 2.46094L11.7324 3.55469C12.097 3.96484 12.0742 4.35221 11.6641 4.7168ZM11.6641 15.6543L6.74219 20.5762L5.7168 21.6016C5.30664 22.0117 4.89648 22.0117 4.48633 21.6016L1.27344 18.3887C0.863281 17.9785 0.863281 17.5911 1.27344 17.2266L2.29883 16.1328C2.70898 15.7682 3.09635 15.7682 3.46094 16.1328L5.0332 17.6367L9.4082 13.3301C9.77279 12.9199 10.1602 12.9199 10.5703 13.3301L11.7324 14.4922C12.097 14.8568 12.0742 15.2441 11.6641 15.6543Z" fill="#FF6A00"/>
</svg>
