<svg width="35" height="35" viewBox="0 0 35 35" fill="none" xmlns="http://www.w3.org/2000/svg">
<path d="M30.625 13.125C31.8555 13.125 32.8923 13.5465 33.7354 14.3896C34.5784 15.2327 35 16.2695 35 17.5V25.1562C35 25.4753 34.8975 25.7373 34.6924 25.9424C34.4873 26.1475 34.2253 26.25 33.9062 26.25H30.625V32.8125C30.625 33.4049 30.4085 33.9176 29.9756 34.3506C29.5426 34.7835 29.0299 35 28.4375 35H6.5625C5.97005 35 5.45736 34.7835 5.02441 34.3506C4.59147 33.9176 4.375 33.4049 4.375 32.8125V26.25H1.09375C0.77474 26.25 0.512695 26.1475 0.307617 25.9424C0.102539 25.7373 0 25.4753 0 25.1562V17.5C0 16.2695 0.421549 15.2327 1.26465 14.3896C2.10775 13.5465 3.14453 13.125 4.375 13.125V2.1875C4.375 1.59505 4.59147 1.08236 5.02441 0.649414C5.45736 0.216473 5.97005 0 6.5625 0H25.3613C25.9538 0 26.4551 0.205078 26.8652 0.615234L30.0098 3.75977C30.4199 4.16992 30.625 4.67122 30.625 5.26367V13.125ZM26.25 30.625V24.0625H8.75V30.625H26.25ZM26.25 15.3125V8.75H22.9688C22.6497 8.75 22.3877 8.64746 22.1826 8.44238C21.9775 8.2373 21.875 7.97526 21.875 7.65625V4.375H8.75V15.3125H26.25ZM28.3691 19.7559C28.3691 19.7559 28.4489 19.8356 28.6084 19.9951C28.7679 20.1546 29.0755 20.2344 29.5312 20.2344C29.987 20.2344 30.3743 20.0749 30.6934 19.7559C31.0124 19.4368 31.1719 19.0495 31.1719 18.5938C31.1719 18.138 31.0124 17.7507 30.6934 17.4316C30.3743 17.1126 29.987 16.9531 29.5312 16.9531C29.0755 16.9531 28.6882 17.1126 28.3691 17.4316C28.0501 17.7507 27.8906 18.138 27.8906 18.5938C27.8906 19.0495 28.0501 19.4368 28.3691 19.7559Z" fill="#FF6A00"/>
</svg>
