<svg width="44" height="35" viewBox="0 0 44 35" fill="none" xmlns="http://www.w3.org/2000/svg">
<path d="M0.957031 0.957031C0.957031 0.957031 1.11654 0.797527 1.43555 0.478516C1.75456 0.159504 2.36979 0 3.28125 0C4.19271 0 4.96745 0.319012 5.60547 0.957031C6.24349 1.59505 6.5625 2.36979 6.5625 3.28125V8.75H1.09375C0.77474 8.75 0.512695 8.64746 0.307617 8.44238C0.102539 8.2373 0 7.97526 0 7.65625V3.28125C0 2.36979 0.31901 1.59505 0.957031 0.957031ZM17.5 28.2324C17.5 29.3262 17.1582 30.306 16.4746 31.1719C15.791 32.0378 14.9251 32.5618 13.877 32.7441C12.5098 32.972 11.3135 32.6416 10.2881 31.7529C9.2627 30.8643 8.75 29.7591 8.75 28.4375V3.28125C8.75 2.09636 8.38542 1.00261 7.65625 0H30.625C32.4479 0 33.9974 0.63802 35.2734 1.91406C36.5495 3.1901 37.1875 4.73958 37.1875 6.5625V24.0625H17.5V28.2324ZM19.6875 26.25H42.6562C42.9753 26.25 43.2373 26.3525 43.4424 26.5576C43.6475 26.7627 43.75 27.0247 43.75 27.3438C43.75 29.4401 42.998 31.2402 41.4941 32.7441C39.9902 34.248 38.1901 35 36.0938 35H13.125C14.9479 35 16.4974 34.362 17.7734 33.0859C19.0495 31.8099 19.6875 30.2604 19.6875 28.4375V26.25Z" fill="#FF6A00"/>
</svg>
